<svg width="906" height="908" xmlns="http://www.w3.org/2000/svg" preserveAspectRatio="xMidYMid meet" version="1.0">

 <g>
  <title>Layer 1</title>
  <ellipse stroke="#000" ry="433.63712" rx="433.63712" id="svg_17" cy="456.91075" cx="455.72727" fill="#e6ddd0"/>
  <g stroke="null" id="svg_1" fill="#2f2b46" transform="translate(0 908) scale(0.1 -0.1)">
   <path stroke="null" id="svg_2" d="m4185,9014c-16,-3 -93,-11 -170,-20c-755,-83 -1541,-395 -2160,-857c-270,-202 -616,-535 -822,-793c-466,-583 -784,-1282 -917,-2014c-55,-306 -61,-378 -61,-795c0,-410 6,-496 51,-755c132,-774 461,-1491 972,-2120c129,-159 474,-498 648,-637c583,-466 1282,-784 2014,-917c306,-55 378,-61 795,-61c410,0 496,6 755,51c422,72 841,208 1226,398c453,223 802,469 1153,811c317,309 564,627 772,990c75,132 222,434 274,565c103,257 198,591 249,870c55,306 61,378 61,795c0,410 -6,496 -51,755c-72,422 -208,841 -398,1226c-223,453 -469,802 -811,1153c-245,251 -459,430 -723,605c-511,338 -1038,557 -1627,675c-303,61 -425,72 -830,76c-203,2 -383,1 -400,-1zm-90,-527c16,-107 10,-100 71,-92c33,4 54,3 54,-3c0,-14 -25,-22 -67,-22l-36,0l6,-57c13,-148 41,-287 60,-306c19,-19 58,-20 117,-1l25,8l-26,-35c-37,-48 -119,-89 -180,-89c-40,0 -55,5 -84,31c-43,38 -57,84 -81,264c-14,105 -22,134 -39,151l-22,22l34,16c51,24 131,103 138,137c9,39 22,29 30,-24zm780,-76c23,-10 53,-33 68,-50c29,-35 63,-134 51,-152c-4,-8 -51,-10 -153,-8l-146,4l-3,-40c-7,-85 35,-162 105,-191c43,-19 92,-6 145,36c43,35 47,32 19,-14c-29,-46 -74,-68 -151,-74c-125,-9 -239,49 -281,142c-25,56 -25,176 0,232c23,50 90,109 139,122c63,17 163,13 207,-7zm993,-32c36,-12 43,20 -66,-292c-55,-157 -76,-230 -68,-236c6,-4 75,-30 154,-57c134,-46 142,-50 142,-75c0,-58 -16,-57 -222,15c-105,36 -193,68 -196,71c-5,4 172,532 190,568c10,20 23,21 66,6zm-2308,-156c24,-21 44,-64 86,-178c60,-162 76,-195 99,-195c8,0 15,-4 15,-10c0,-5 -2,-10 -4,-10c-2,0 -54,-18 -116,-40c-120,-43 -142,-48 -122,-28c7,7 12,24 12,38c0,29 -93,294 -111,316c-16,20 -53,17 -74,-6c-33,-37 -30,-95 10,-213c39,-113 65,-157 93,-157c10,0 12,-3 7,-9c-13,-13 -235,-94 -241,-88c-3,2 0,15 6,28c9,21 2,49 -43,179c-75,212 -73,209 -105,227l-29,17l95,33c52,18 101,33 109,33c7,0 19,-16 27,-35c8,-19 17,-35 19,-35c3,0 17,25 31,55c34,69 88,105 158,105c38,0 54,-6 78,-27zm3185,-241c99,-59 181,-115 182,-123c2,-7 -6,-25 -16,-38l-19,-25l-145,87c-79,48 -147,87 -149,87c-12,0 -90,-141 -85,-153c3,-7 59,-46 126,-86c67,-39 121,-77 121,-84c0,-7 -9,-23 -19,-36l-18,-23l-120,70c-65,39 -126,74 -134,77c-22,8 -117,-154 -97,-166c7,-5 75,-46 151,-90c75,-45 137,-85 137,-90c0,-4 -5,-20 -12,-34c-8,-19 -18,-25 -32,-23c-12,3 -101,53 -199,112c-139,85 -177,112 -172,125c11,28 307,521 314,521c3,0 87,-49 186,-108zm-3949,-117c63,-31 102,-71 87,-86c-6,-6 -62,-43 -124,-83c-62,-39 -114,-76 -116,-82c-6,-19 60,-96 101,-117c48,-25 116,-25 150,0c31,22 66,92 67,135l1,33l9,-39c19,-79 -26,-158 -118,-209c-152,-82 -296,-43 -370,102c-62,118 -34,235 74,313c88,64 157,74 239,33zm-792,-234c38,-39 49,-96 32,-155c-8,-25 -12,-46 -9,-46c3,0 22,14 43,30c21,17 42,30 48,30c6,0 74,-72 151,-159c119,-135 146,-160 173,-163c31,-3 31,-4 -63,-85c-51,-46 -97,-83 -101,-83c-5,0 -8,11 -8,25c0,18 -33,63 -111,153c-148,169 -155,175 -192,168l-29,-6l18,28c32,47 63,117 54,120c-5,2 -18,-1 -29,-7c-77,-41 -164,39 -131,120c26,62 108,78 154,30zm5357,-141c72,-22 141,-76 189,-145c30,-44 61,-140 53,-162c-3,-8 -22,-13 -44,-13c-34,0 -39,3 -39,23c-1,34 -38,108 -73,145c-112,117 -284,103 -373,-30c-76,-112 -41,-255 82,-336c69,-46 85,-43 155,33c34,36 66,65 72,65c14,0 57,-41 57,-54c0,-7 -38,-49 -85,-96l-85,-84l-47,12c-106,29 -198,103 -245,200c-65,133 -37,277 73,376c91,82 191,103 310,66zm-5506,-459c100,-47 175,-149 175,-242c0,-66 -41,-143 -93,-174c-32,-18 -53,-43 -87,-105c-47,-83 -63,-96 -74,-57c-6,20 -74,77 -360,300c-85,67 -104,78 -128,73c-15,-3 -28,-2 -28,2c0,6 104,139 130,166c5,5 40,-17 81,-48l72,-57l13,36c36,106 186,159 299,106zm6223,-347l23,-35l-23,-38c-84,-139 -345,-531 -353,-531c-12,0 -45,52 -45,69c0,6 18,40 40,75c22,35 40,67 40,71c0,4 -39,68 -86,142c-63,97 -91,132 -102,128c-8,-3 -47,-8 -86,-12l-71,-6l-20,36c-10,20 -17,38 -15,40c6,6 605,94 645,96c24,1 35,-6 53,-35zm-6663,-369c167,-72 178,-76 209,-60c14,8 26,10 26,5c0,-6 -24,-67 -52,-136c-52,-124 -53,-126 -62,-94c-8,28 -20,38 -85,68c-136,63 -234,99 -253,94c-33,-8 -41,-48 -19,-91c24,-46 39,-56 168,-109c106,-44 141,-50 161,-30c33,33 13,-29 -71,-216c-21,-46 -22,-47 -28,-21c-4,14 -13,32 -19,40c-19,23 -299,137 -321,130c-48,-16 -27,-108 33,-145c18,-11 77,-39 131,-62c89,-38 102,-41 130,-30c17,6 33,10 35,7c7,-7 -96,-239 -108,-243c-5,-2 -10,6 -10,17c0,27 -17,37 -204,117c-145,62 -161,66 -189,56c-17,-6 -32,-10 -34,-8c-3,3 75,194 83,205c2,2 21,-4 44,-13c43,-17 48,-11 26,32c-37,75 -25,164 31,212c23,21 44,30 68,30c18,0 36,4 39,9c3,5 -3,29 -14,52c-25,57 -25,112 1,166c43,89 112,93 284,18zm7005,-291c7,-20 8,-39 4,-43c-5,-4 -117,-48 -249,-96c-132,-49 -242,-90 -245,-92c-2,-2 4,-25 14,-51c10,-26 35,-95 56,-154l39,-108l-31,-16c-41,-21 -45,-15 -98,126c-80,218 -91,250 -86,259c3,5 77,35 163,67c87,32 214,79 283,105c68,26 128,45 132,43c3,-2 12,-20 18,-40zm-4612,-343c13,-8 37,-83 187,-581c233,-775 296,-965 371,-1116c101,-207 217,-299 406,-324c106,-14 132,-5 167,60c23,42 26,58 32,225c8,231 3,1452 -6,1497c-10,48 -50,113 -85,138c-17,12 -30,25 -30,31c0,9 611,12 635,3c9,-4 -3,-21 -35,-52c-32,-32 -53,-62 -62,-92c-10,-36 -13,-213 -13,-895l0,-850l355,0l355,0l52,27c72,39 74,48 10,48c-63,0 -107,25 -145,80c-20,29 -23,45 -20,91c5,70 35,114 96,141c67,30 124,18 178,-35c54,-55 64,-103 36,-184c-11,-32 -30,-106 -43,-165l-22,-108l-587,0c-565,0 -589,-1 -670,-21c-74,-19 -103,-21 -245,-16c-117,3 -181,10 -238,26c-252,67 -464,275 -566,557c-34,93 -102,324 -241,819c-56,198 -108,384 -117,413c-8,28 -18,52 -23,52c-5,0 -13,-15 -19,-32c-5,-18 -54,-161 -110,-318c-55,-156 -98,-286 -95,-289c2,-3 19,1 37,7c110,40 244,-16 293,-122c75,-161 -36,-344 -210,-346c-72,0 -118,21 -179,83c-32,32 -60,57 -61,55c-2,-1 -31,-86 -66,-187c-70,-205 -77,-253 -42,-300c12,-16 22,-33 22,-36c0,-3 -69,-5 -152,-4c-147,0 -152,1 -128,17c50,34 102,86 126,127c28,48 544,1417 544,1444c0,24 -56,107 -78,116c-14,5 -14,7 -2,15c19,12 370,13 388,1zm-2542,-488c-3,-21 -10,-76 -16,-123c-6,-47 -13,-95 -16,-108l-5,-23l-23,27l-23,27l-119,-23c-65,-12 -124,-28 -130,-34c-16,-16 -24,-104 -10,-114c28,-21 203,-94 225,-94c14,0 30,8 38,18c11,16 13,13 13,-27c0,-61 -11,-75 -36,-48c-10,12 -48,35 -84,52c-36,16 -155,70 -265,119c-110,50 -204,94 -208,98c-4,3 -2,51 4,104l13,98l19,-26c26,-36 54,-34 311,19c213,44 277,63 290,84c15,24 28,10 22,-26zm6617,-736c18,-13 118,-63 222,-110c105,-47 221,-100 259,-118l68,-32l-7,-86c-4,-47 -10,-89 -14,-94c-4,-4 -16,2 -26,13c-26,29 -60,26 -318,-29c-166,-35 -237,-54 -259,-71c-16,-12 -32,-19 -36,-16c-3,3 3,70 13,147l19,141l19,-26c23,-31 32,-32 172,-3c121,25 120,25 124,113c1,29 -2,32 -106,77c-118,52 -137,55 -165,30c-17,-15 -18,-15 -18,4c0,27 11,83 17,83c2,0 19,-11 36,-23zm-69,-811c101,-48 294,-126 311,-126c9,0 25,5 36,10c25,14 24,6 -5,-66c-60,-148 -56,-145 -105,-119c-38,19 -43,11 -20,-38c24,-55 24,-118 -1,-167c-25,-48 -59,-72 -108,-75c-42,-3 -43,-5 -17,-60c44,-96 4,-211 -81,-234c-42,-11 -91,3 -232,64c-127,56 -158,63 -193,45c-10,-6 -19,-8 -19,-4c0,15 94,230 106,244c12,12 14,12 14,-5c0,-33 30,-53 178,-116c148,-63 162,-65 185,-27c6,8 7,27 3,42c-12,49 -57,83 -171,130c-115,48 -134,52 -166,36c-10,-6 -19,-7 -19,-3c0,10 83,212 98,239c10,18 11,18 17,-1c4,-11 10,-27 14,-35c9,-16 284,-139 313,-140c10,0 25,11 34,25c14,21 14,30 4,54c-20,48 -60,77 -179,127c-102,42 -117,46 -144,36c-17,-6 -32,-11 -33,-9c-3,2 79,197 99,236l12,24l9,-32c7,-24 20,-36 60,-55zm-6710,-42c15,-43 46,-126 67,-183c22,-58 39,-112 39,-121c0,-12 -32,-29 -117,-60c-65,-24 -194,-72 -287,-107c-94,-35 -173,-60 -177,-56c-11,14 -26,68 -22,81c3,6 9,12 15,12c15,0 471,170 480,178c3,4 -18,71 -48,150c-30,78 -54,149 -54,156c0,14 46,37 65,32c6,-2 23,-38 39,-82zm234,-580l23,-35l-45,-71c-53,-82 -58,-61 56,-233c81,-121 65,-113 184,-100l61,7l23,-36c12,-21 21,-39 19,-40c-4,-4 -121,-22 -448,-68l-224,-32l-23,30c-13,16 -24,35 -24,43c0,8 57,103 127,210c70,108 151,233 180,279c30,45 57,82 61,82c4,0 17,-16 30,-36zm5912,-328c0,-17 38,-50 230,-202c226,-179 237,-187 265,-182c14,3 25,1 25,-4c0,-14 -124,-167 -135,-167c-5,0 -39,24 -75,54c-66,54 -80,59 -80,25c0,-11 -14,-35 -32,-55c-95,-109 -244,-105 -361,9c-57,55 -81,108 -81,176c-1,70 33,133 91,172c28,19 56,53 88,108c45,77 65,97 65,66zm-5368,-432c68,-34 138,-102 173,-166c40,-74 46,-179 14,-263c-30,-80 -104,-154 -184,-184c-127,-48 -275,-7 -371,103c-47,54 -84,136 -84,186c0,28 3,30 38,30c38,0 38,0 56,-58c55,-186 271,-253 401,-124c119,118 95,289 -54,383c-66,42 -80,39 -149,-36c-33,-36 -66,-65 -74,-65c-8,0 -25,11 -38,25l-24,25l30,33c16,17 53,58 84,90c52,56 57,58 93,52c21,-3 61,-17 89,-31zm4888,-153c0,-22 25,-57 114,-157c141,-161 149,-168 181,-162c14,3 25,3 25,0c0,-3 -13,-27 -30,-53c-16,-27 -33,-61 -36,-75c-7,-27 -7,-27 17,-11c61,43 149,-3 149,-78c0,-49 -44,-95 -92,-95c-83,0 -128,87 -98,189c5,19 8,37 5,39c-2,3 -23,-12 -45,-32c-22,-20 -42,-36 -43,-36c-2,0 -58,62 -125,138c-146,167 -170,189 -202,194c-22,3 -15,11 68,86c50,45 96,82 102,82c5,0 10,-13 10,-29zm-4160,-412c102,-61 187,-112 188,-114c5,-5 -308,-524 -319,-531c-5,-3 -92,45 -194,106l-185,111l15,29c8,16 19,31 23,34c5,3 72,-33 150,-80c78,-46 145,-84 150,-84c7,0 84,123 90,145c1,6 -56,46 -128,89c-71,44 -130,81 -130,83c0,14 35,53 47,53c9,0 69,-32 134,-71c65,-39 122,-68 127,-65c12,7 92,141 92,154c0,6 -60,45 -132,88c-173,100 -171,99 -152,135c8,16 20,29 27,29c6,0 95,-50 197,-111zm3826,42c85,-39 162,-171 150,-259c-17,-123 -139,-232 -261,-231c-28,0 -64,7 -81,17c-34,19 -86,61 -97,79c-4,7 39,39 119,89c69,43 127,81 129,85c8,12 -53,87 -92,113c-29,20 -50,26 -90,26c-46,0 -56,-4 -86,-34c-21,-20 -39,-53 -48,-82l-13,-49l-4,39c-2,22 -1,50 3,63c10,40 77,105 140,135c74,34 166,38 231,9zm-616,-260c-17,-33 -12,-58 46,-220c63,-175 74,-196 106,-207c18,-5 2,-14 -82,-45c-57,-21 -107,-36 -111,-33c-4,2 -13,20 -19,39c-6,19 -15,35 -18,35c-4,0 -15,-20 -25,-45c-49,-117 -196,-159 -259,-74c-11,14 -44,93 -74,175c-38,104 -62,156 -80,172c-15,13 -25,25 -22,27c9,9 230,86 234,82c3,-3 0,-14 -7,-25c-10,-17 -8,-34 16,-103c82,-244 102,-276 150,-245c27,18 49,85 40,119c-4,12 -25,73 -47,136c-36,99 -45,115 -71,126l-30,12l84,32c46,18 100,38 119,46c51,20 63,19 50,-4zm-2618,-67c89,-31 177,-62 195,-69l32,-14l-73,-213c-41,-117 -84,-242 -96,-278c-35,-101 -35,-101 -73,-88c-17,6 -36,14 -41,18c-4,5 31,120 78,257c47,136 86,251 86,254c0,4 -68,30 -151,59c-83,29 -153,58 -155,65c-6,15 13,65 25,65c5,0 83,-25 173,-56zm1784,-183c44,-27 63,-77 85,-220c30,-199 32,-204 57,-217c21,-11 21,-11 -18,-29c-59,-26 -128,-95 -136,-133c-4,-18 -10,-32 -15,-32c-9,0 -15,18 -27,95l-8,50l-59,-3c-55,-2 -59,-2 -41,13c11,8 34,15 52,15c18,0 35,4 38,9c12,18 -42,333 -60,352c-21,23 -64,24 -104,4c-44,-23 -39,2 8,48c65,63 167,85 228,48zm-631,-29c133,-46 199,-170 165,-311c-28,-117 -102,-172 -240,-179c-75,-3 -90,-1 -130,20c-57,31 -103,101 -104,161l-1,42l150,0l150,0l-3,59c-4,81 -34,134 -92,163c-38,19 -51,21 -83,12c-21,-5 -53,-23 -71,-40c-42,-37 -51,-37 -31,0c17,33 62,69 103,81c46,14 135,10 187,-8z"/>
   <path stroke="null" id="svg_3" d="m4742,8375c-27,-30 -39,-62 -45,-125c-2,-12 19,-15 121,-18c121,-3 122,-2 122,20c-1,37 -35,102 -69,131c-47,39 -90,37 -129,-8z"/>
   <path stroke="null" id="svg_4" d="m2645,7863c-58,-15 -78,-78 -50,-160c10,-29 24,-53 31,-53c12,0 121,63 177,103l28,19l-28,30c-45,48 -110,73 -158,61z"/>
   <path stroke="null" id="svg_5" d="m1575,6930c-13,-42 41,-104 198,-224c82,-62 125,-80 163,-66c67,26 -22,149 -186,256c-89,59 -163,73 -175,34z"/>
   <path stroke="null" id="svg_6" d="m7818,6606c-70,-11 -130,-24 -133,-28c-4,-4 23,-53 60,-109c36,-56 70,-98 74,-93c20,22 161,237 161,245c0,12 -10,11 -162,-15z"/>
   <path stroke="null" id="svg_7" d="m815,4920l-70,-17l69,-32c37,-18 69,-31 71,-29c8,9 15,87 8,90c-4,3 -39,-3 -78,-12z"/>
   <path stroke="null" id="svg_8" d="m8146,4287c-11,-32 -15,-77 -8,-81c7,-4 133,22 140,29c4,4 -64,40 -104,55c-18,7 -26,6 -28,-3z"/>
   <path stroke="null" id="svg_9" d="m1208,2753c-32,-38 -159,-236 -154,-241c9,-8 296,42 296,52c0,9 -119,206 -124,206c-2,0 -10,-8 -18,-17z"/>
   <path stroke="null" id="svg_10" d="m7082,2488c-18,-18 -15,-30 20,-83c35,-53 155,-153 228,-190c117,-59 173,-13 93,76c-40,44 -153,138 -218,182c-42,29 -102,36 -123,15z"/>
   <path stroke="null" id="svg_11" d="m6303,1432c-51,-31 -93,-62 -93,-68c0,-21 69,-73 111,-84c80,-22 129,11 129,85c0,50 -26,125 -44,125c-6,0 -53,-26 -103,-58z"/>
   <path stroke="null" id="svg_12" d="m4095,878c26,-118 120,-181 188,-128c29,23 64,117 54,144c-5,13 -25,16 -127,16l-122,0l7,-32z"/>
  </g>
 </g>
</svg>