<svg width="730.0000000000001" height="146" xmlns="http://www.w3.org/2000/svg" preserveAspectRatio="xMidYMid meet" version="1.0">

 <g>
  <title>Layer 1</title>
  <g id="svg_1" fill="#000000" transform="translate(0 1080) scale(0.1 -0.1)">
   <path id="svg_2" d="m445.14247,10768.21699c14,-16 28,-39 32,-50c4,-13 -54,-181 -171,-492c-97,-260 -185,-489 -195,-509c-10,-20 -40,-55 -66,-78l-48,-41l108,0c59,0 107,3 107,6c0,3 -7,12 -15,20c-27,27 -17,96 31,234l47,131l15,-31c33,-68 142,-100 219,-63c100,47 116,202 27,272c-47,37 -100,47 -151,29c-29,-11 -43,-12 -40,-5c2,7 40,113 83,236c57,165 80,219 86,205c4,-10 49,-165 98,-344c169,-604 192,-663 315,-785c121,-122 220,-159 425,-159c75,0 136,5 153,12c20,9 144,12 442,12l414,0l16,78c9,42 23,94 31,114c38,103 -60,193 -156,143c-64,-33 -78,-114 -30,-168c33,-38 68,-49 112,-36c25,7 28,6 18,-6c-6,-8 -31,-23 -54,-34c-39,-19 -61,-21 -284,-21l-242,0l0,586c0,420 3,598 12,626c6,21 27,52 45,68l34,30l-226,0l-226,0l34,-32c55,-52 57,-78 57,-658c0,-541 -4,-597 -42,-646c-20,-25 -24,-26 -86,-20c-118,12 -191,57 -256,155c-73,111 -108,213 -331,959l-88,292l-139,0l-140,0l25,-30z"/>
   <path id="svg_3" d="m5066.14247,10588.21699c-55,-23 -71,-99 -30,-147c19,-22 32,-28 65,-28l41,0l-38,-22c-20,-13 -61,-31 -91,-39c-51,-15 -52,-17 -30,-28c24,-12 24,-12 27,-223l2,-212l-27,-15c-26,-14 -18,-15 114,-16l142,0l-24,25c-25,24 -25,24 -25,240l0,215l-72,0l-73,1l42,21c24,11 56,36 73,54c39,45 43,118 7,152c-27,25 -73,35 -103,22z"/>
   <path id="svg_4" d="m4395.14247,10494.21699l27,-25l0,-288c0,-244 -2,-292 -15,-311c-15,-21 -15,-22 12,-17c139,23 172,25 207,10c94,-39 208,10 256,111c17,35 23,64 23,122c0,118 -41,193 -128,233c-49,23 -123,24 -152,4l-22,-16l-3,98l-3,98l-114,3l-115,3l27,-25zm307,-188c52,-87 49,-377 -5,-432c-21,-20 -54,-8 -76,28c-16,27 -19,51 -19,186c0,163 10,223 38,239c28,17 41,13 62,-21z"/>
   <path id="svg_5" d="m6628.14247,10470.21699c-11,-32 -72,-82 -130,-106c-48,-20 -54,-25 -41,-36c12,-10 15,-41 15,-167c0,-249 27,-303 150,-303c59,0 102,16 148,54c42,36 41,49 -3,30c-47,-19 -62,-18 -90,11c-25,24 -25,27 -25,195l0,170l55,0c30,0 55,5 55,10c0,6 -25,10 -55,10l-55,0l0,75c0,71 -12,97 -24,57z"/>
   <path id="svg_6" d="m2982.14247,10376.21699c-18,-57 -56,-184 -87,-283c-30,-99 -63,-192 -74,-207l-20,-28l63,0c59,1 61,2 39,14c-45,25 -45,30 13,229l17,57l63,0l62,0l37,-113c20,-62 37,-120 37,-129c0,-9 -12,-26 -26,-37l-27,-21l154,0l153,0l-26,28c-36,38 -46,61 -128,302c-78,229 -83,262 -37,280c15,6 -10,9 -80,9l-102,1l-31,-102zm17,-196c-27,-2 -51,-2 -53,0c-3,4 28,115 42,147c4,10 16,-13 34,-64l27,-80l-50,-3z"/>
   <path id="svg_7" d="m3742.14247,10327.21699c-19,-11 -50,-37 -67,-57l-33,-37l0,53l0,52l-117,0c-93,-1 -114,-3 -98,-12c11,-6 23,-16 27,-22c4,-6 8,-99 8,-208l0,-196l-27,-21l-28,-20l150,0c132,0 147,1 126,13c-36,20 -40,37 -40,176c-1,112 2,129 22,165c25,44 67,66 95,49c15,-10 17,-34 20,-188l2,-176l-32,-20l-33,-20l155,0c118,1 150,3 135,12c-41,22 -45,37 -45,175c0,99 4,141 15,163c29,56 94,79 115,41c6,-11 10,-88 10,-178c0,-165 -3,-178 -45,-201c-15,-9 17,-11 135,-12l155,0l-32,20l-33,20l0,162c0,90 -5,179 -10,199c-15,54 -50,82 -113,87c-66,5 -120,-19 -165,-75l-30,-38l-15,36c-8,20 -27,45 -42,57c-37,29 -116,30 -165,1z"/>
   <path id="svg_8" d="m5452.14247,10339.21699c-111,-34 -170,-115 -170,-235c0,-77 20,-126 71,-178c109,-109 308,-103 380,11c35,55 39,80 4,29c-32,-47 -103,-82 -149,-74c-71,14 -118,78 -130,179l-7,57l150,0c82,0 152,4 155,9c10,15 -24,109 -51,141c-40,48 -92,70 -165,69c-35,0 -74,-4 -88,-8zm171,-24c38,-26 76,-87 81,-132l3,-30l-122,-3l-123,-3l0,28c0,80 53,163 103,163c13,0 39,-10 58,-23z"/>
   <path id="svg_9" d="m6124.14247,10327.21699c-24,-12 -53,-37 -65,-55c-12,-19 -25,-34 -29,-34c-5,0 -8,23 -8,50l0,50l-117,-1c-82,0 -111,-3 -95,-9c35,-15 42,-50 42,-219c0,-191 -4,-217 -39,-236c-23,-13 -11,-14 124,-14c132,0 147,1 126,13c-14,8 -28,22 -32,32c-14,35 -10,252 5,288c26,63 83,95 114,64c8,-8 12,-64 12,-184l0,-173l-26,-20l-27,-21l143,0l143,0l-27,25l-26,24l0,171c0,185 -5,209 -56,249c-36,28 -105,28 -162,0z"/>
   <path id="svg_10" d="m6983.14247,10337.21699c-103,-30 -161,-114 -161,-233c0,-87 21,-137 78,-188c53,-47 134,-72 213,-65c79,7 126,32 160,86c34,53 39,80 7,35c-54,-76 -146,-102 -205,-58c-40,30 -71,91 -79,157l-7,57l151,0c83,0 153,4 156,9c10,15 -21,100 -49,137c-39,51 -92,74 -167,73c-35,0 -78,-5 -97,-10zm180,-22c38,-25 79,-97 79,-139l0,-28l-120,0l-120,0l0,38c0,47 31,114 61,136c32,22 60,20 100,-7z"/>
   <path id="svg_11" d="m5016.14247,9738.21699c-71,-16 -114,-70 -114,-144c0,-98 63,-152 167,-144c82,6 93,16 93,89c0,52 -2,59 -19,59c-17,0 -20,-8 -23,-52c-3,-47 -6,-52 -32,-61c-19,-6 -41,-6 -68,2c-103,31 -102,181 1,212c34,10 47,9 83,-4c27,-11 46,-13 52,-7c14,14 -10,38 -47,45c-18,4 -39,8 -47,10c-8,1 -29,-1 -46,-5z"/>
   <path id="svg_12" d="m3382.14247,9593.21699l0,-145l100,0c93,0 100,1 100,20c0,18 -7,20 -75,20l-75,0l0,125l0,125l-25,0l-25,0l0,-145z"/>
   <path id="svg_13" d="m4082.14247,9713.21699l0,-26l108,3c102,3 107,4 110,26c3,22 2,22 -107,22l-111,0l0,-25z"/>
   <path id="svg_14" d="m5873.14247,9696.21699c-10,-24 -31,-70 -46,-103c-15,-33 -35,-79 -46,-102l-18,-43l22,0c19,0 30,18 71,116c28,63 53,117 56,119c4,2 30,-49 57,-113c41,-94 55,-118 73,-120c27,-4 30,-12 -48,160c-49,110 -60,128 -80,128c-17,0 -27,-10 -41,-42z"/>
   <path id="svg_15" d="m6672.14247,9593.21699l0,-145l100,0c93,0 100,1 100,20c0,18 -7,20 -80,20l-80,0l0,125c0,118 -1,125 -20,125c-19,0 -20,-7 -20,-145z"/>
   <path id="svg_16" d="m4089.14247,9621.21699c-4,-3 -7,-15 -7,-25c0,-16 9,-18 90,-18c89,0 90,0 90,25c0,25 -1,25 -83,25c-46,0 -87,-3 -90,-7z"/>
   <path id="svg_17" d="m4089.14247,9492.21699c-4,-4 -7,-16 -7,-26c0,-16 10,-18 111,-18c109,0 110,0 107,23c-3,21 -8,22 -104,25c-55,1 -103,0 -107,-4z"/>
  </g>
 </g>
</svg>