<?xml version="1.0" standalone="no"?>
<!DOCTYPE svg PUBLIC "-//W3C//DTD SVG 20010904//EN"
 "http://www.w3.org/TR/2001/REC-SVG-20010904/DTD/svg10.dtd">
<svg version="1.0" xmlns="http://www.w3.org/2000/svg"
 width="1444.000000pt" height="392.000000pt" viewBox="0 0 1444.000000 392.000000"
 preserveAspectRatio="xMidYMid meet">

<g transform="translate(0.000000,392.000000) scale(0.100000,-0.100000)"
fill="#000000" stroke="none">
<path d="M1515 3076 c39 -42 65 -95 65 -133 0 -16 -72 -220 -159 -454 -388
-1036 -472 -1254 -496 -1295 -34 -58 -80 -111 -128 -145 l-38 -27 67 -7 c65
-7 230 -2 240 7 2 3 -5 25 -16 49 -25 55 -25 87 -1 169 24 83 127 373 143 408
17 34 35 38 43 11 11 -34 84 -108 130 -131 56 -29 158 -35 223 -14 67 22 144
98 166 162 38 113 10 229 -75 311 -76 73 -178 92 -289 53 -30 -10 -57 -16 -60
-14 -4 4 46 153 175 524 114 327 115 328 134 292 10 -18 52 -164 217 -757 179
-638 242 -834 315 -975 155 -298 418 -500 703 -539 116 -16 417 -14 501 4 55
11 164 15 505 16 239 1 568 5 730 8 l294 6 27 128 c15 71 37 160 49 199 21 62
22 75 11 123 -10 45 -20 62 -58 94 -91 81 -208 64 -286 -41 -28 -37 -33 -109
-13 -162 36 -94 130 -142 226 -116 23 6 45 8 49 5 12 -13 -80 -84 -137 -107
-55 -21 -69 -22 -485 -26 l-427 -4 2 1069 3 1068 22 47 c11 25 40 67 63 92
l43 46 -374 0 -374 -1 38 -31 c48 -39 83 -107 97 -189 17 -97 9 -1980 -9
-2034 -16 -53 -60 -116 -93 -134 -23 -13 -40 -13 -120 -3 -132 16 -212 44
-293 99 -170 117 -251 270 -423 793 -80 244 -107 332 -351 1145 l-129 430 -39
7 c-21 4 -129 7 -239 7 l-201 1 32 -34z"/>
<path d="M9679 2723 c-75 -46 -85 -163 -20 -235 26 -29 35 -33 100 -36 59 -4
71 -7 69 -20 -4 -20 -151 -100 -198 -108 -19 -3 -48 -10 -63 -16 l-28 -11 30
-18 c17 -10 34 -31 38 -46 5 -15 8 -179 8 -363 0 -299 -2 -339 -17 -362 -17
-26 -17 -26 14 -32 43 -8 264 -6 318 3 25 5 39 9 32 10 -7 0 -20 17 -28 36
-11 28 -14 104 -14 405 l0 370 -123 0 c-68 0 -127 3 -130 7 -4 3 26 22 66 42
126 62 187 141 187 243 0 50 -12 79 -50 116 -29 30 -37 32 -98 32 -44 0 -76
-6 -93 -17z"/>
<path d="M8552 2601 l-44 -6 26 -24 26 -24 0 -519 c0 -353 -3 -526 -11 -540
-6 -11 -9 -22 -6 -24 2 -3 74 4 158 14 151 19 155 19 209 1 71 -25 80 -24 40
4 -18 12 -43 40 -54 62 -20 38 -21 55 -21 335 l0 296 30 61 31 61 -29 -15
c-16 -8 -31 -13 -33 -11 -2 2 -6 77 -10 166 l-7 162 -96 0 c-53 0 -112 2 -131
4 -19 2 -55 1 -78 -3z"/>
<path d="M12472 2526 c-18 -50 -99 -118 -195 -165 -45 -22 -90 -43 -101 -46
-18 -5 -18 -6 0 -26 17 -19 20 -47 27 -308 9 -317 15 -368 55 -426 56 -81 130
-106 254 -86 86 14 145 42 200 93 42 39 43 39 13 31 -16 -4 -58 -8 -92 -8 -55
0 -66 3 -90 28 l-28 27 -3 315 -3 315 73 0 c40 0 84 3 96 7 43 11 1 23 -84 23
l-81 0 -7 77 c-3 42 -6 100 -6 130 0 61 -11 68 -28 19z"/>
<path d="M6096 2541 c-29 -6 -31 -10 -116 -291 -169 -554 -212 -685 -235 -727
-26 -47 -21 -54 38 -52 31 0 84 17 60 18 -17 1 -43 54 -43 88 0 45 109 397
127 411 11 8 52 12 115 12 115 0 92 28 175 -215 67 -200 73 -236 45 -275 l-21
-28 22 -6 c29 -8 356 -8 396 0 l31 7 -34 38 c-50 54 -53 61 -181 428 -173 497
-178 522 -114 575 l31 26 -134 -1 c-73 -1 -146 -4 -162 -8z m-52 -253 c21 -34
87 -240 82 -255 -6 -16 -181 -19 -191 -3 -3 5 7 51 24 102 16 51 34 112 40
136 13 47 24 52 45 20z"/>
<path d="M7441 2309 c-63 -12 -121 -50 -183 -119 -30 -33 -60 -60 -66 -60 -8
0 -12 22 -12 63 0 102 1 101 -199 105 -94 2 -171 1 -171 -3 0 -3 11 -16 25
-28 37 -32 45 -102 45 -397 0 -265 -8 -331 -41 -366 l-20 -21 38 -7 c50 -8
337 -8 358 0 14 6 13 10 -10 34 l-26 27 3 255 3 255 30 48 c35 57 106 102 145
92 73 -18 79 -44 79 -388 l1 -255 -31 -30 -30 -29 23 -6 c34 -10 316 -9 363 0
22 5 34 9 27 10 -7 0 -21 16 -32 34 -18 29 -20 50 -20 257 0 134 5 241 11 265
13 47 91 130 132 140 42 11 76 -2 97 -38 19 -30 20 -51 20 -312 0 -262 -1
-282 -20 -312 -11 -18 -25 -34 -32 -34 -7 -1 5 -5 27 -10 48 -9 309 -12 354
-3 l32 7 -29 31 -29 31 -7 302 c-4 242 -9 310 -21 340 -71 171 -308 172 -457
2 -29 -32 -58 -59 -65 -59 -7 0 -24 25 -38 55 -32 68 -83 111 -147 125 -55 11
-65 11 -127 -1z"/>
<path d="M9023 2299 c34 -26 60 -75 84 -160 25 -90 25 -431 0 -532 -23 -91
-42 -126 -80 -143 -32 -15 -31 -15 28 -10 92 6 168 40 229 100 75 72 105 138
119 251 31 268 -88 464 -308 504 -32 6 -68 11 -79 11 -19 -1 -18 -3 7 -21z"/>
<path d="M10450 2310 c-150 -22 -256 -94 -321 -220 -20 -39 -24 -62 -27 -188
l-4 -143 31 -62 c34 -70 102 -145 166 -182 72 -42 196 -69 295 -62 143 9 237
60 294 159 18 31 16 30 -32 -15 -87 -80 -167 -103 -264 -77 -48 14 -128 86
-156 143 -42 85 -66 253 -39 275 7 6 109 12 264 14 138 2 255 6 258 10 14 13
-44 172 -80 221 -39 52 -109 102 -165 117 -54 14 -159 19 -220 10z m244 -42
c71 -49 125 -145 142 -255 l7 -43 -222 0 -221 0 0 53 c0 97 60 229 119 263 41
23 128 14 175 -18z"/>
<path d="M11650 2306 c-65 -17 -110 -48 -175 -117 -73 -80 -85 -75 -85 31 l0
80 -144 0 c-79 0 -158 -3 -175 -6 l-32 -7 21 -21 c34 -38 42 -120 38 -425 -3
-251 -5 -290 -21 -318 -10 -18 -23 -34 -30 -34 -6 -1 8 -5 33 -10 54 -9 270
-11 323 -3 34 6 36 8 23 23 -31 35 -38 93 -34 311 l3 215 30 54 c57 103 144
137 203 78 l27 -27 0 -294 c0 -290 0 -295 -22 -325 -13 -16 -23 -33 -23 -36 0
-7 217 -6 318 2 l83 6 -23 24 c-23 24 -23 30 -29 328 l-6 303 -27 56 c-52 107
-150 147 -276 112z"/>
<path d="M13178 2310 c-147 -18 -282 -115 -329 -238 -31 -82 -38 -231 -14
-318 33 -124 132 -225 270 -276 50 -18 81 -22 180 -22 151 0 210 20 279 94 55
59 61 85 9 40 -54 -48 -129 -80 -187 -80 -67 0 -125 30 -184 95 -42 45 -53 67
-71 133 -23 87 -28 181 -9 200 9 9 83 12 270 12 l258 0 -6 28 c-24 110 -78
215 -133 260 -29 23 -130 72 -148 72 -10 0 0 -9 22 -19 85 -38 166 -160 180
-268 l7 -53 -227 0 -228 0 7 63 c15 142 74 242 161 272 l40 14 -40 -1 c-22 0
-70 -4 -107 -8z"/>
<path d="M6730 990 l0 -250 170 0 170 0 0 25 0 24 -137 3 -138 3 -3 223 -2
222 -30 0 -30 0 0 -250z"/>
<path d="M7970 1228 c0 -7 3 -23 6 -35 6 -23 9 -23 174 -23 165 0 168 0 174
23 13 48 16 47 -174 47 -137 0 -180 -3 -180 -12z"/>
<path d="M9579 1227 c-114 -43 -183 -169 -158 -287 16 -75 64 -139 129 -173
51 -27 61 -29 145 -25 59 3 103 11 127 23 l36 18 7 99 c4 54 5 102 2 104 -3 3
-14 3 -25 0 -16 -5 -21 -21 -28 -89 l-9 -82 -59 -19 c-51 -17 -65 -18 -105 -7
-108 28 -161 95 -161 201 0 123 68 192 194 198 61 3 78 0 117 -21 34 -19 50
-22 58 -14 20 20 11 36 -31 59 -54 27 -184 35 -239 15z"/>
<path d="M11166 1218 c-8 -13 -48 -97 -89 -188 -41 -91 -87 -191 -102 -223
-15 -32 -25 -61 -22 -64 3 -3 17 -1 32 4 26 8 38 32 172 338 17 39 37 71 46
73 10 2 34 -42 83 -155 105 -240 115 -258 144 -258 15 0 24 5 22 13 -4 19
-203 455 -214 470 -17 20 -56 14 -72 -10z"/>
<path d="M12550 990 l0 -250 175 0 c96 0 175 3 175 8 -1 23 -26 30 -150 38
l-135 9 -3 223 -2 222 -30 0 -30 0 0 -250z"/>
<path d="M8000 1031 c-26 -7 -36 -28 -22 -47 4 -7 64 -14 150 -18 l142 -7 0
41 0 40 -122 -1 c-68 -1 -134 -4 -148 -8z"/>
<path d="M8010 803 c-34 -7 -43 -17 -35 -42 6 -20 12 -21 176 -21 l169 0 0 30
0 30 -77 0 c-43 0 -107 2 -143 4 -36 3 -76 2 -90 -1z"/>
</g>
</svg>
